<?xml version="1.0" encoding="UTF-8" standalone="no"?>
<svg
   sodipodi:docname="world.svg"
   inkscape:version="1.3.2 (091e20e, 2023-11-25, custom)"
   id="svg8"
   version="1.1"
   viewBox="0 0 237.69475 164.98065"
   height="164.98065"
   width="237.69475"
   xml:space="preserve"
   inkscape:export-filename="..\assets\building\roof (normal).svg"
   inkscape:export-xdpi="96"
   inkscape:export-ydpi="96"
   xmlns:inkscape="http://www.inkscape.org/namespaces/inkscape"
   xmlns:sodipodi="http://sodipodi.sourceforge.net/DTD/sodipodi-0.dtd"
   xmlns:xlink="http://www.w3.org/1999/xlink"
   xmlns="http://www.w3.org/2000/svg"
   xmlns:svg="http://www.w3.org/2000/svg"
   xmlns:rdf="http://www.w3.org/1999/02/22-rdf-syntax-ns#"
   xmlns:cc="http://creativecommons.org/ns#"
   xmlns:dc="http://purl.org/dc/elements/1.1/"><sodipodi:namedview
     inkscape:window-maximized="1"
     inkscape:window-y="-8"
     inkscape:window-x="-8"
     inkscape:window-height="1017"
     inkscape:window-width="1920"
     inkscape:snap-global="true"
     inkscape:snap-page="true"
     units="px"
     inkscape:object-paths="true"
     inkscape:snap-nodes="true"
     inkscape:snap-bbox-midpoints="true"
     inkscape:bbox-nodes="true"
     inkscape:snap-bbox-edge-midpoints="true"
     inkscape:bbox-paths="true"
     inkscape:snap-bbox="true"
     showgrid="true"
     inkscape:document-rotation="0"
     inkscape:current-layer="layer4"
     inkscape:document-units="px"
     inkscape:cy="686.40341"
     inkscape:cx="149.91572"
     inkscape:zoom="0.99722697"
     inkscape:pageshadow="2"
     inkscape:pageopacity="0.0"
     borderopacity="1.0"
     bordercolor="#666666"
     pagecolor="#97e1af"
     id="base"
     inkscape:snap-grids="true"
     inkscape:showpageshadow="2"
     inkscape:pagecheckerboard="true"
     inkscape:deskcolor="#d1d1d1"
     showguides="true"
     showborder="false"
     shape-rendering="crispEdges"><inkscape:grid
       type="axonomgrid"
       id="grid3"
       units="px"
       originx="62.825178"
       originy="-227.36553"
       spacingx="0"
       spacingy="1"
       empcolor="#3f3fff"
       empopacity="0.25098039"
       color="#3f3fff"
       opacity="0.1254902"
       empspacing="10"
       dotted="false"
       gridanglex="26.56"
       gridanglez="26.56"
       visible="true" /><sodipodi:guide
       position="712.34719,903.17314"
       orientation="-5.47816,10.95873"
       id="guide654"
       inkscape:locked="false" /><sodipodi:guide
       position="723.30592,908.6513"
       orientation="-12.02185,4.04456"
       id="guide655"
       inkscape:locked="false" /><sodipodi:guide
       position="727.35048,920.67315"
       orientation="10,-20.00441"
       id="guide656"
       inkscape:locked="false" /><sodipodi:guide
       position="120.03626,1165.3913"
       orientation="-0.44713473,-0.89446662"
       id="guide658"
       inkscape:locked="false" /><sodipodi:guide
       position="68.57054,946.31588"
       orientation="-0.099482072,-0.99503935"
       id="guide659"
       inkscape:locked="false" /><sodipodi:guide
       position="625.26934,886.20551"
       orientation="1,0"
       id="guide1"
       inkscape:locked="false" /><sodipodi:guide
       position="640.33406,893.67481"
       orientation="1,0"
       id="guide2"
       inkscape:locked="false" /><sodipodi:guide
       position="-21.86422,585.57695"
       orientation="0.44713473,-0.89446662"
       id="guide663"
       inkscape:locked="false" /><sodipodi:guide
       position="-27.63293,1102.6679"
       orientation="0.44713473,-0.89446662"
       id="guide291"
       inkscape:locked="false" /><sodipodi:guide
       position="-7.7237799,1107.2119"
       orientation="-0.44713473,-0.89446662"
       id="guide292"
       inkscape:locked="false" /><sodipodi:guide
       position="62.93357,1075.5318"
       orientation="0.44713473,-0.89446662"
       id="guide577"
       inkscape:locked="false" /><sodipodi:guide
       position="51.14285,1141.5915"
       orientation="-0.44713473,-0.89446662"
       id="guide578"
       inkscape:locked="false" /><sodipodi:guide
       position="-517.39041,1099.3646"
       orientation="-0.44713473,-0.89446662"
       id="guide585"
       inkscape:locked="false" /><sodipodi:guide
       position="-46.28543,1122.3067"
       orientation="-0.44713473,-0.89446662"
       id="guide701"
       inkscape:locked="false" /><sodipodi:guide
       position="-62.49824,1075.5271"
       orientation="0.44713473,-0.89446662"
       id="guide702"
       inkscape:locked="false" /><sodipodi:guide
       position="-132.65192,1178.9924"
       orientation="0.44713473,-0.89446662"
       id="guide703"
       inkscape:locked="false" /><sodipodi:guide
       position="-162.23073,1193.4153"
       orientation="0.44713473,-0.89446662"
       id="guide706"
       inkscape:locked="false" /><sodipodi:guide
       position="58.05614,1071.3813"
       orientation="-0.44713473,-0.89446662"
       id="guide11"
       inkscape:locked="false" /><sodipodi:guide
       position="58.05618,948.8152"
       orientation="-0.44713473,-0.89446662"
       id="guide12"
       inkscape:locked="false" /><sodipodi:guide
       position="24.41493,1018.118"
       orientation="0.44713473,-0.89446662"
       id="guide4"
       inkscape:locked="false" /><sodipodi:guide
       position="25.60979,1001.1696"
       orientation="0.44713473,-0.89446662"
       id="guide794"
       inkscape:locked="false" /><sodipodi:guide
       position="19.69478,1001.7453"
       orientation="-0.44713473,-0.89446662"
       id="guide795"
       inkscape:locked="false" /><sodipodi:guide
       position="44.26507,1070.9982"
       orientation="-0.44713473,-0.89446662"
       id="guide1090"
       inkscape:locked="false" /><sodipodi:guide
       position="-41.37373,1018.8993"
       orientation="-0.44713473,-0.89446662"
       id="guide1093"
       inkscape:locked="false" /><sodipodi:guide
       position="68.93357,1075.2547"
       orientation="-0.44713473,-0.89446662"
       id="guide3"
       inkscape:locked="false" /><sodipodi:guide
       position="68.93357,1079.5318"
       orientation="-0.44713473,-0.89446662"
       id="guide5"
       inkscape:locked="false" /><sodipodi:guide
       position="68.70506,968.26909"
       orientation="0.44713473,-0.89446662"
       id="guide6"
       inkscape:locked="false" /><sodipodi:guide
       position="80.99301,1084.527"
       orientation="1,0"
       id="guide1095"
       inkscape:locked="false" /><sodipodi:guide
       position="172.39192,1015.9897"
       orientation="0.44713473,-0.89446662"
       id="guide1096"
       inkscape:locked="false" /></sodipodi:namedview><defs
     id="defs2"><linearGradient
       id="linearGradient338"
       inkscape:collect="always"><stop
         id="stop337"
         offset="0"
         style="stop-color:#7ce407;stop-opacity:1;" /><stop
         id="stop338"
         offset="1"
         style="stop-color:#036707;stop-opacity:1;" /></linearGradient><linearGradient
       id="swatch40"
       inkscape:swatch="solid"
       inkscape:label="curb"><stop
         style="stop-color:#4c4c4c;stop-opacity:1;"
         offset="0"
         id="stop40" /></linearGradient><pattern
       inkscape:collect="always"
       xlink:href="#pattern69"
       preserveAspectRatio="xMidYMid"
       id="pattern70"
       patternTransform="matrix(0.091,0,0,0.091,592.19379,910.04376)"
       x="0"
       y="0" /><linearGradient
       id="linearGradient2313"
       inkscape:collect="always"><stop
         id="stop2309"
         offset="0"
         style="stop-color:#9a7171;stop-opacity:1" /><stop
         id="stop2311"
         offset="1"
         style="stop-color:#785353;stop-opacity:1" /></linearGradient><linearGradient
       gradientUnits="userSpaceOnUse"
       y2="267.09924"
       x2="140.42387"
       y1="267.09924"
       x1="130.01199"
       id="linearGradient1151"
       xlink:href="#linearGradient1149"
       inkscape:collect="always"
       gradientTransform="matrix(6.5714857,0,0,5.7034366,206.34457,121.07927)" /><linearGradient
       id="linearGradient1149"
       inkscape:collect="always"><stop
         id="stop1145"
         offset="0"
         style="stop-color:#d1d1d1;stop-opacity:1" /><stop
         id="stop1147"
         offset="1"
         style="stop-color:#969696;stop-opacity:1" /></linearGradient><linearGradient
       gradientUnits="userSpaceOnUse"
       y2="1001.7557"
       x2="513.04883"
       y1="1001.7557"
       x1="507.50696"
       id="linearGradient1172"
       xlink:href="#linearGradient1170"
       inkscape:collect="always"
       gradientTransform="matrix(1.7387056,0,0,1.5090342,206.34457,121.07927)" /><linearGradient
       id="linearGradient1170"
       inkscape:collect="always"><stop
         id="stop1166"
         offset="0"
         style="stop-color:#c8c8c8;stop-opacity:1" /><stop
         id="stop1168"
         offset="1"
         style="stop-color:#979797;stop-opacity:1" /></linearGradient><radialGradient
       gradientUnits="userSpaceOnUse"
       gradientTransform="matrix(1.8393263,0,0,0.95520112,862.90551,1346.6955)"
       r="10.296962"
       fy="253.92827"
       fx="114.79663"
       cy="253.92827"
       cx="114.79663"
       id="radialGradient1503"
       xlink:href="#linearGradient1499"
       inkscape:collect="always" /><linearGradient
       id="linearGradient1499"
       inkscape:collect="always"><stop
         id="stop1495"
         offset="0"
         style="stop-color:#00d01e;stop-opacity:1" /><stop
         id="stop1497"
         offset="1"
         style="stop-color:#989898;stop-opacity:0" /></linearGradient><linearGradient
       inkscape:collect="always"
       xlink:href="#linearGradient2313"
       id="linearGradient2428"
       gradientUnits="userSpaceOnUse"
       x1="30.379837"
       y1="61.043156"
       x2="32.033482"
       y2="61.043156"
       gradientTransform="matrix(3.5119671,0,0,3.5119705,1006.099,1376.3941)" /><linearGradient
       inkscape:collect="always"
       xlink:href="#linearGradient2313"
       id="linearGradient2438"
       gradientUnits="userSpaceOnUse"
       x1="30.379837"
       y1="61.043156"
       x2="32.033482"
       y2="61.043156"
       gradientTransform="matrix(3.5119671,0,0,3.5119705,872.31895,1420.1117)" /><linearGradient
       inkscape:collect="always"
       xlink:href="#linearGradient2313"
       id="linearGradient2448"
       gradientUnits="userSpaceOnUse"
       x1="30.379837"
       y1="61.043156"
       x2="32.033482"
       y2="61.043156"
       gradientTransform="matrix(3.5119671,0,0,3.5119705,1093.3927,1420.5103)" /><linearGradient
       inkscape:collect="always"
       xlink:href="#linearGradient2313"
       id="linearGradient2458"
       gradientUnits="userSpaceOnUse"
       x1="30.379837"
       y1="61.043156"
       x2="32.033482"
       y2="61.043156"
       gradientTransform="matrix(3.5119671,0,0,3.5119705,1007.0376,1482.4607)" /><linearGradient
       inkscape:collect="always"
       xlink:href="#linearGradient2313"
       id="linearGradient2468"
       gradientUnits="userSpaceOnUse"
       x1="30.379837"
       y1="61.043156"
       x2="32.033482"
       y2="61.043156"
       gradientTransform="matrix(3.5119671,0,0,3.5119705,964.06428,1485.9567)" /><linearGradient
       inkscape:collect="always"
       xlink:href="#linearGradient2313"
       id="linearGradient2478"
       gradientUnits="userSpaceOnUse"
       x1="30.379837"
       y1="61.043156"
       x2="32.033482"
       y2="61.043156"
       gradientTransform="matrix(3.5119671,0,0,3.5119705,1091.1667,1442.8149)" /><linearGradient
       inkscape:collect="always"
       xlink:href="#linearGradient2313"
       id="linearGradient2488"
       gradientUnits="userSpaceOnUse"
       x1="30.379837"
       y1="61.043156"
       x2="32.033482"
       y2="61.043156"
       gradientTransform="matrix(3.5119671,0,0,3.5119705,962.07312,1377.4384)" /><linearGradient
       inkscape:collect="always"
       xlink:href="#linearGradient2313"
       id="linearGradient2498"
       gradientUnits="userSpaceOnUse"
       x1="30.379837"
       y1="61.043156"
       x2="32.033482"
       y2="61.043156"
       gradientTransform="matrix(3.5119671,0,0,3.5119705,869.48419,1445.1379)" /><pattern
       patternUnits="userSpaceOnUse"
       width="256"
       height="256"
       patternTransform="translate(592.19379,910.04376)"
       preserveAspectRatio="xMidYMid"
       id="pattern69"
       style="fill:#000000"
       inkscape:label="pattern69"><image
         width="256"
         height="256"
         preserveAspectRatio="none"
         style="image-rendering:optimizeQuality"
         xlink:href="../../SREM/working/textures/sidewalk.png"
         id="image1"
         x="0"
         y="0"
         sodipodi:absref="D:\SREM\working\textures\sidewalk.png" /></pattern><linearGradient
       inkscape:collect="always"
       xlink:href="#swatch40"
       id="linearGradient40"
       x1="984.82141"
       y1="1646.7422"
       x2="1190.9535"
       y2="1646.7422"
       gradientUnits="userSpaceOnUse" /><filter
       inkscape:collect="always"
       style="color-interpolation-filters:sRGB"
       id="filter1"
       x="-0.20680517"
       y="-0.3882461"
       width="1.4136103"
       height="1.7764922"><feGaussianBlur
         inkscape:collect="always"
         stdDeviation="4.4078711"
         id="feGaussianBlur1" /></filter><filter
       inkscape:collect="always"
       style="color-interpolation-filters:sRGB"
       id="filter2"
       x="-0.20680517"
       y="-0.38824753"
       width="1.4136103"
       height="1.7764951"><feGaussianBlur
         inkscape:collect="always"
         stdDeviation="4.4078711"
         id="feGaussianBlur2" /></filter><filter
       inkscape:collect="always"
       style="color-interpolation-filters:sRGB"
       id="filter7"
       x="-0.70762061"
       y="-0.61010358"
       width="2.4152412"
       height="2.2202072"><feGaussianBlur
         inkscape:collect="always"
         stdDeviation="4.4078711"
         id="feGaussianBlur7" /></filter><filter
       inkscape:collect="always"
       style="color-interpolation-filters:sRGB"
       id="filter8"
       x="-0.27928157"
       y="-0.53778195"
       width="1.5585631"
       height="2.0755639"><feGaussianBlur
         inkscape:collect="always"
         stdDeviation="4.4078711"
         id="feGaussianBlur8" /></filter><filter
       inkscape:collect="always"
       style="color-interpolation-filters:sRGB"
       id="filter9"
       x="-0.27928157"
       y="-1.7417098"
       width="1.5585631"
       height="4.4834196"><feGaussianBlur
         inkscape:collect="always"
         stdDeviation="4.4078711"
         id="feGaussianBlur9" /></filter><filter
       inkscape:collect="always"
       style="color-interpolation-filters:sRGB"
       id="filter10"
       x="-0.70761916"
       y="-0.61010358"
       width="2.4152383"
       height="2.2202072"><feGaussianBlur
         inkscape:collect="always"
         stdDeviation="4.4078711"
         id="feGaussianBlur10" /></filter><radialGradient
       inkscape:collect="always"
       xlink:href="#linearGradient338"
       id="radialGradient2470-5"
       gradientUnits="userSpaceOnUse"
       gradientTransform="matrix(1.9697528,0,0,1.9200338,-27.594972,-47.330109)"
       cx="29.066267"
       cy="50.914894"
       fx="29.066267"
       fy="50.914894"
       r="4.9609056" /><filter
       style="color-interpolation-filters:sRGB"
       inkscape:label="Noise Fill"
       id="filter543-1"
       x="0"
       y="0"
       width="1"
       height="1"><feTurbulence
         type="fractalNoise"
         baseFrequency="1.7865357142857143 1.8633500000000001"
         numOctaves="7"
         seed="94"
         result="turbulence"
         id="feTurbulence541-0" /><feComposite
         in="SourceGraphic"
         in2="turbulence"
         operator="in"
         result="composite1"
         id="feComposite542-0" /><feColorMatrix
         values="1 0 0 0 0 0 1 0 0 0 0 0 1 0 0 0 0 0 2.76048 -1.08 "
         result="color"
         id="feColorMatrix542-1" /><feFlood
         flood-opacity="1"
         flood-color="rgb(31,167,0)"
         result="flood"
         id="feFlood542-8" /><feMerge
         result="merge"
         id="feMerge543-2"><feMergeNode
           in="flood"
           id="feMergeNode542-0" /><feMergeNode
           in="color"
           id="feMergeNode543-3" /></feMerge><feComposite
         in2="SourceGraphic"
         operator="in"
         result="composite2"
         id="feComposite543-8" /></filter><radialGradient
       inkscape:collect="always"
       xlink:href="#linearGradient338"
       id="radialGradient177"
       gradientUnits="userSpaceOnUse"
       gradientTransform="matrix(1.9697528,0,0,1.9200338,-27.594972,-47.330109)"
       cx="29.066267"
       cy="50.914894"
       fx="29.066267"
       fy="50.914894"
       r="4.9609056" /><radialGradient
       inkscape:collect="always"
       xlink:href="#linearGradient338"
       id="radialGradient178"
       gradientUnits="userSpaceOnUse"
       gradientTransform="matrix(1.9697528,0,0,1.9200338,-27.594972,-47.330109)"
       cx="29.066267"
       cy="50.914894"
       fx="29.066267"
       fy="50.914894"
       r="4.9609056" /><radialGradient
       inkscape:collect="always"
       xlink:href="#linearGradient338"
       id="radialGradient179"
       gradientUnits="userSpaceOnUse"
       gradientTransform="matrix(1.9697528,0,0,1.9200338,-27.594972,-47.330109)"
       cx="29.066267"
       cy="50.914894"
       fx="29.066267"
       fy="50.914894"
       r="4.9609056" /><radialGradient
       inkscape:collect="always"
       xlink:href="#linearGradient338"
       id="radialGradient180"
       gradientUnits="userSpaceOnUse"
       gradientTransform="matrix(1.9697528,0,0,1.9200338,-27.594972,-47.330109)"
       cx="29.066267"
       cy="50.914894"
       fx="29.066267"
       fy="50.914894"
       r="4.9609056" /><radialGradient
       inkscape:collect="always"
       xlink:href="#linearGradient338"
       id="radialGradient181"
       gradientUnits="userSpaceOnUse"
       gradientTransform="matrix(1.9697528,0,0,1.9200338,-27.594972,-47.330109)"
       cx="29.066267"
       cy="50.914894"
       fx="29.066267"
       fy="50.914894"
       r="4.9609056" /><radialGradient
       inkscape:collect="always"
       xlink:href="#linearGradient338"
       id="radialGradient182"
       gradientUnits="userSpaceOnUse"
       gradientTransform="matrix(1.9697528,0,0,1.9200338,-27.594972,-47.330109)"
       cx="29.066267"
       cy="50.914894"
       fx="29.066267"
       fy="50.914894"
       r="4.9609056" /><radialGradient
       inkscape:collect="always"
       xlink:href="#linearGradient338"
       id="radialGradient183"
       gradientUnits="userSpaceOnUse"
       gradientTransform="matrix(1.9697528,0,0,1.9200338,-27.594972,-47.330109)"
       cx="29.066267"
       cy="50.914894"
       fx="29.066267"
       fy="50.914894"
       r="4.9609056" /></defs><metadata
     id="metadata5"><rdf:RDF><cc:Work
         rdf:about=""><dc:format>image/svg+xml</dc:format><dc:type
           rdf:resource="http://purl.org/dc/dcmitype/StillImage" /></cc:Work></rdf:RDF></metadata><g
     inkscape:groupmode="layer"
     id="layer4"
     inkscape:label="Objects"
     style="display:inline;opacity:1"
     transform="translate(-237.17482,-627.36554)"><g
       id="g556"
       transform="matrix(0.832897,0,0,0.826121,-564.616,-642.391)"
       style="display:inline;opacity:1;stroke-width:1.20555"
       inkscape:label="park 2 (level 2 complete)"><path
         id="path556"
         style="display:inline;fill:url(#linearGradient40);stroke-width:0.318965;stroke-linecap:round;stroke-linejoin:round"
         d="m 1003.2362,1620.9248 -1.2001,1.0064 c 0,0 14.7724,8.0987 29.1533,15.3213 -2.3691,4.3484 -1.8699,9.5904 -1.2596,14.3148 -0.01,1.4873 1.6529,3.27 1.3928,4.2761 -10.8021,5.5256 -21.6042,11.0512 -32.40624,16.5768 -0.5025,2.4797 0.29297,4.1544 2.83944,4.743 10.44,5.2326 20.88,10.4651 31.3199,15.6977 3.1604,0.1145 5.7004,-2.3938 8.5812,-3.4616 11.7911,-5.9089 23.5822,-11.8179 35.3733,-17.7268 8.097,0.9631 16.2776,1.2199 24.4191,0.7751 18.1566,9.1 52.6457,26.4018 52.6457,26.4018 l 9.5668,-4.2276 27.2384,-13.652 c 0,0 0.5657,-2.4974 -1.9876,-3.0857 -13.1448,-6.5862 -26.2896,-13.1725 -39.4344,-19.7587 6.4291,-4.648 8.7693,-14.194 4.6004,-21.0663 -1.3369,-1.6804 -2.429,-2.982 0.4091,-3.5977 12.4238,-6.4279 35.2018,-17.9018 35.2018,-17.9018 l -38.53,-19.2185 c 0,0 -26.9786,13.3107 -39.3938,19.5309 -14.6201,-1.8342 -29.5477,-1.5196 -44.023,1.3032 -9.6082,-4.8153 -28.3736,-14.1423 -28.3736,-14.1423 l -1.987,0.7826 -7.3512,3.9321 z m 89.8448,6.656 c 11.1522,0.1496 22.9286,1.5548 32.4857,7.7442 3.3822,2.1377 6.4989,6.623 3.9235,10.529 -3.7853,5.551 -10.9606,7.8166 -16.8321,9.451 -13.7878,3.3077 -28.5672,3.1337 -42.1417,-1.0799 -5.232,-1.8755 -11.3097,-4.264 -13.728,-9.688 -1.3668,-3.6062 1.5719,-7.149 4.0998,-8.881 8.7175,-5.9992 19.6482,-7.5835 30.004,-8.0187 0.7296,-0.018 1.4592,-0.041 2.1888,-0.057 z"
         sodipodi:nodetypes="cccccccccccccccccccccccccccccccccccc"
         inkscape:label="curb" /><path
         d="m 1039.5108,1604.7486 -34.1459,17.1093 28.4371,14.61 c -1.4931,2.3528 -2.4057,4.4459 -2.4067,6.887 8e-4,3.9794 -0.7055,9.3247 3.1718,12.9272 l -34.80077,17.801 34.14587,17.1093 42.7665,-21.4314 c 5.5496,0.6913 11.2928,1.0424 17.0645,1.0433 2.7141,-3e-4 5.4253,-0.078 8.1162,-0.2328 l 54.8949,27.5076 34.1459,-17.1093 -44.9653,-22.5325 c 6.5284,-4.3914 8.3551,-8.6551 8.3544,-13.8881 -10e-5,-3.7804 -1.4844,-7.0427 -4.9954,-10.4994 l 37.6428,-19.8633 -34.1459,-17.1093 -40.6825,20.7105 c -5.9488,-0.8002 -12.1395,-1.2065 -18.3651,-1.2054 -9.0779,-10e-5 -18.0459,0.8661 -26.2741,2.5376 z m 53.5227,20.9675 c 0.1366,-4e-4 0.274,-4e-4 0.4107,0 21.4682,-5e-4 38.8724,7.5515 38.8729,16.8676 -7e-4,9.3161 -17.4049,16.8681 -38.8729,16.8675 -21.4668,-2e-4 -38.8689,-7.5519 -38.8696,-16.8675 -6e-4,-9.2464 17.1525,-16.7696 38.4587,-16.8676 z"
         style="font-variation-settings:normal;opacity:1;vector-effect:none;fill:url(#pattern70);fill-opacity:1;stroke-width:1.3261;stroke-linecap:round;stroke-linejoin:miter;stroke-miterlimit:4;stroke-dasharray:none;stroke-dashoffset:110.496;stroke-opacity:1;-inkscape-stroke:none;stop-color:#000000;stop-opacity:1"
         id="path1112-5"
         inkscape:connector-curvature="0"
         sodipodi:nodetypes="cccccccccccccccccccccccccccc"
         inkscape:label="park pavement" /><g
         id="g188"
         inkscape:label="fountain"><path
           d="m 1093.1492,1625.7161 a 35.690759,15.329269 0 0 0 -29.1738,6.6859 h -6.2218 v 8.6424 a 35.690759,15.329269 0 0 0 35.6907,15.331 35.690759,15.329269 0 0 0 35.6938,-15.331 v -8.6424 h -6.2218 a 35.690759,15.329269 0 0 0 -29.472,-6.6859 35.690759,15.329269 0 0 0 -0.2951,0 z"
           style="fill:url(#linearGradient1151);fill-opacity:1;stroke-width:0.28576;stroke-linecap:round;stroke-linejoin:round"
           id="ellipse1139"
           inkscape:connector-curvature="0" /><ellipse
           ry="15.329268"
           rx="35.690758"
           cy="1636.4075"
           cx="1093.4443"
           id="path1137"
           style="fill:#ffffff;fill-opacity:1;stroke-width:0.28576;stroke-linecap:round;stroke-linejoin:round" /><ellipse
           style="fill:#5555ff;fill-opacity:1;stroke-width:0.231763;stroke-linecap:round;stroke-linejoin:round"
           id="ellipse1153"
           cx="1093.4443"
           cy="1636.3096"
           rx="28.946194"
           ry="12.432462" /><ellipse
           ry="5.5980926"
           rx="9.8797789"
           cy="1636.3096"
           cx="1093.4443"
           id="ellipse1174"
           style="fill:#ffffff;fill-opacity:1;stroke-width:0.637951;stroke-linecap:round;stroke-linejoin:round" /><path
           d="m 1088.5033,1623.877 v 12.4319 a 4.9397563,2.7989707 0 0 0 4.9411,2.7998 4.9397563,2.7989707 0 0 0 4.941,-2.7998 v -12.4319 z"
           style="fill:url(#linearGradient1172);fill-opacity:1;stroke-width:0.318965;stroke-linecap:round;stroke-linejoin:round"
           id="path1158"
           inkscape:connector-curvature="0" /><ellipse
           style="fill:#ffffff;fill-opacity:1;stroke-width:0.318965;stroke-linecap:round;stroke-linejoin:round"
           id="ellipse1160"
           cx="1093.4443"
           cy="1623.8772"
           rx="4.9397564"
           ry="2.7989707" /><path
           sodipodi:nodetypes="csc"
           id="path1176"
           d="m 1096.2691,1623.5691 c -0.026,-0.2845 5.2735,-11.1251 10.7577,-7.0501 6.7942,5.0482 8.7451,18.2366 8.1781,18.4827"
           style="fill:none;fill-opacity:1;stroke:#9494ff;stroke-width:0.241109;stroke-linecap:round;stroke-linejoin:round;stroke-miterlimit:4;stroke-dasharray:0.482221, 0.482221;stroke-dashoffset:0;stroke-opacity:1"
           inkscape:connector-curvature="0" /><path
           style="fill:none;fill-opacity:1;stroke:#9494ff;stroke-width:0.241109;stroke-linecap:round;stroke-linejoin:round;stroke-miterlimit:4;stroke-dasharray:0.482221, 0.482221;stroke-dashoffset:0;stroke-opacity:1"
           d="m 1096.2691,1625.6651 c -0.026,-0.2845 5.2735,-11.125 10.7577,-7.0501 6.7942,5.0482 8.7451,18.2366 8.1781,18.4827"
           id="path1178"
           sodipodi:nodetypes="csc"
           inkscape:connector-curvature="0" /><path
           sodipodi:nodetypes="csc"
           id="path1180"
           d="m 1094.7323,1625.6651 c -0.026,-0.2845 6.7754,-7.4532 11.9104,-3.0487 6.0938,5.227 5.4998,6.6022 7.0254,14.4813"
           style="fill:none;fill-opacity:1;stroke:#9494ff;stroke-width:0.241109;stroke-linecap:round;stroke-linejoin:round;stroke-miterlimit:4;stroke-dasharray:0.482221, 0.482221;stroke-dashoffset:0;stroke-opacity:1"
           inkscape:connector-curvature="0" /><path
           style="fill:none;fill-opacity:1;stroke:#9494ff;stroke-width:0.0700103;stroke-linecap:round;stroke-linejoin:round;stroke-miterlimit:4;stroke-dasharray:0.14002, 0.14002;stroke-dashoffset:0;stroke-opacity:1"
           d="m 1095.2454,1626.1367 c -0.02,-0.2845 5.4084,-7.4532 9.5073,-3.0488 4.8643,5.227 4.3902,6.6022 5.6079,14.4814"
           id="path1182"
           sodipodi:nodetypes="csc"
           inkscape:connector-curvature="0" /><path
           style="fill:none;fill-opacity:1;stroke:#9494ff;stroke-width:0.241109;stroke-linecap:round;stroke-linejoin:round;stroke-miterlimit:4;stroke-dasharray:0.482221, 0.482221;stroke-dashoffset:0;stroke-opacity:1"
           d="m 1091.3262,1622.8954 c 0.026,-0.2845 -5.2735,-11.1251 -10.7577,-7.0501 -6.7942,5.0482 -8.7451,18.2366 -8.1781,18.4827"
           id="path1184"
           sodipodi:nodetypes="csc"
           inkscape:connector-curvature="0" /><path
           sodipodi:nodetypes="csc"
           id="path1186"
           d="m 1091.3262,1624.9914 c 0.026,-0.2844 -5.2735,-11.125 -10.7577,-7.0501 -6.7942,5.0482 -8.7451,18.2366 -8.1781,18.4827"
           style="fill:none;fill-opacity:1;stroke:#9494ff;stroke-width:0.241109;stroke-linecap:round;stroke-linejoin:round;stroke-miterlimit:4;stroke-dasharray:0.482221, 0.482221;stroke-dashoffset:0;stroke-opacity:1"
           inkscape:connector-curvature="0" /><path
           style="fill:none;fill-opacity:1;stroke:#9494ff;stroke-width:0.241109;stroke-linecap:round;stroke-linejoin:round;stroke-miterlimit:4;stroke-dasharray:0.482221, 0.482221;stroke-dashoffset:0;stroke-opacity:1"
           d="m 1092.863,1624.9914 c 0.026,-0.2844 -6.7754,-7.4532 -11.9104,-3.0487 -6.0938,5.227 -5.4998,6.6022 -7.0253,14.4813"
           id="path1188"
           sodipodi:nodetypes="csc"
           inkscape:connector-curvature="0" /><path
           sodipodi:nodetypes="csc"
           id="path1190"
           d="m 1092.3499,1625.463 c 0.02,-0.2845 -5.4084,-7.4532 -9.5073,-3.0487 -4.8643,5.2269 -4.3902,6.6022 -5.6079,14.4813"
           style="fill:none;fill-opacity:1;stroke:#9494ff;stroke-width:0.241109;stroke-linecap:round;stroke-linejoin:round;stroke-miterlimit:4;stroke-dasharray:0.482221, 0.482221;stroke-dashoffset:0;stroke-opacity:1"
           inkscape:connector-curvature="0" /><path
           style="display:inline;opacity:1;fill:none;fill-opacity:1;stroke:#9494ff;stroke-width:0.241109;stroke-linecap:round;stroke-linejoin:round;stroke-miterlimit:4;stroke-dasharray:0.482221, 0.482221;stroke-dashoffset:0;stroke-opacity:1"
           d="m 1094.2995,1622.1482 c -0.033,-0.3621 6.9939,-14.1663 14.2673,-8.9774 9.0106,6.4283 11.598,23.2221 10.8459,23.5355"
           id="path1192"
           sodipodi:nodetypes="csc"
           inkscape:connector-curvature="0" /></g><g
         id="g187"
         inkscape:label="ground"><ellipse
           style="fill:url(#radialGradient1503);fill-opacity:1;stroke:none;stroke-width:0.120555;stroke-linecap:round;stroke-linejoin:round;stroke-miterlimit:4;stroke-dasharray:none;stroke-dashoffset:0;stroke-opacity:1;filter:url(#filter8)"
           id="path1493-7"
           cx="1074.054"
           cy="1589.248"
           rx="18.939472"
           ry="9.8356695" /><path
           inkscape:connector-curvature="0"
           style="opacity:0.679739;fill:#008a15;fill-opacity:0.685484;stroke:none;stroke-width:0.120554;stroke-linecap:round;stroke-linejoin:round;stroke-miterlimit:4;stroke-dasharray:none;stroke-dashoffset:0;stroke-opacity:1;filter:url(#filter7)"
           d="m 1084.1942,1587.4134 c 0,0 5.3788,-0.3811 9.4404,-3.0488 4.0616,-2.6676 4.0616,-8.765 4.0616,-8.765 0,0 3.1834,12.6712 0.1098,14.4814 -3.0737,1.8101 -13.1727,2.8581 -13.1727,2.8581 z"
           id="path1505-1" /><ellipse
           ry="3.036927"
           rx="18.939472"
           cy="1657.5199"
           cx="1203.5074"
           id="ellipse1519"
           style="opacity:0.522876;fill:#00dc21;fill-opacity:1;stroke:none;stroke-width:0.120555;stroke-linecap:round;stroke-linejoin:round;stroke-miterlimit:4;stroke-dasharray:none;stroke-dashoffset:0;stroke-opacity:1;filter:url(#filter9)" /><path
           inkscape:connector-curvature="0"
           id="path1521-5"
           d="m 1222.5073,1652.9606 c 0,0 5.3789,-0.3811 9.4405,-3.0487 4.0615,-2.6676 4.0615,-8.765 4.0615,-8.765 0,0 3.1834,12.6712 0.1099,14.4813 -3.0737,1.8102 -13.1727,2.8582 -13.1727,2.8582 z"
           style="opacity:0.679739;fill:#008a15;fill-opacity:0.685484;stroke:none;stroke-width:0.120554;stroke-linecap:round;stroke-linejoin:round;stroke-miterlimit:4;stroke-dasharray:none;stroke-dashoffset:0;stroke-opacity:1;filter:url(#filter10)" /><path
           style="opacity:0.32;fill:#ffffff;fill-opacity:1;stroke-width:0.318963;stroke-linecap:round;stroke-linejoin:round;filter:url(#filter2)"
           d="m 1043.7979,1698.8889 c 15.2604,5.2473 31.2636,8.9709 43.4699,20.4835 l 1.427,6.7643 -51.1539,-24.8661 z"
           id="path1148"
           inkscape:connector-curvature="0"
           sodipodi:nodetypes="ccccc" /><path
           sodipodi:nodetypes="ccccc"
           inkscape:connector-curvature="0"
           id="path1311-3"
           d="m 1133.8113,1697.6503 c -15.2604,5.2474 -31.2636,8.971 -43.4698,20.4835 l -1.4271,6.7644 51.1539,-24.8661 z"
           style="opacity:0.323;fill:#383838;fill-opacity:1;stroke-width:0.318963;stroke-linecap:round;stroke-linejoin:round;filter:url(#filter1)" /></g><g
         id="g186"
         inkscape:label="bench"
         style="display:inline;opacity:1;stroke-width:1.20555"><path
           id="path1477-0"
           d="m 1163.7598,1646.6365 v 3.1927 h 3.1858 v -3.1927 z"
           style="fill:#99481f;fill-opacity:1;stroke:none;stroke-width:0.120555;stroke-linecap:round;stroke-linejoin:round;stroke-miterlimit:4;stroke-dasharray:none;stroke-dashoffset:0;stroke-opacity:1"
           inkscape:connector-curvature="0" /><path
           id="path1479-7"
           d="m 1162.1669,1647.4347 h 6.3716 v -9.5782 h -6.3716 z"
           style="fill:#803300;fill-opacity:1;stroke:none;stroke-width:0.120555;stroke-linecap:round;stroke-linejoin:round;stroke-miterlimit:4;stroke-dasharray:none;stroke-dashoffset:0;stroke-opacity:1"
           inkscape:connector-curvature="0" /><path
           id="path1481-8"
           d="m 1168.5385,1647.4347 3.1858,-3.1927 v -9.5783 l -3.1858,3.1928 z"
           style="fill:#9f4c20;fill-opacity:1;stroke:none;stroke-width:0.120555;stroke-linecap:round;stroke-linejoin:round;stroke-miterlimit:4;stroke-dasharray:none;stroke-dashoffset:0;stroke-opacity:1"
           inkscape:connector-curvature="0" /></g><g
         id="g185"
         inkscape:label="bench"
         style="display:inline;opacity:1;stroke-width:1.20555"><path
           style="fill:#99481f;fill-opacity:1;stroke:none;stroke-width:0.120554;stroke-linecap:round;stroke-linejoin:round;stroke-miterlimit:4;stroke-dasharray:none;stroke-dashoffset:0;stroke-opacity:1"
           d="m 1021.7178,1648.5342 v 3.1927 h -3.1858 v -3.1927 z"
           id="path1485-0"
           inkscape:connector-curvature="0" /><path
           style="fill:#803300;fill-opacity:1;stroke:none;stroke-width:0.120554;stroke-linecap:round;stroke-linejoin:round;stroke-miterlimit:4;stroke-dasharray:none;stroke-dashoffset:0;stroke-opacity:1"
           d="m 1023.3107,1649.3324 h -6.3716 v -9.5782 h 6.3716 z"
           id="path1487-6"
           inkscape:connector-curvature="0" /><path
           style="fill:#602e14;fill-opacity:1;stroke:none;stroke-width:0.120554;stroke-linecap:round;stroke-linejoin:round;stroke-miterlimit:4;stroke-dasharray:none;stroke-dashoffset:0;stroke-opacity:1"
           d="m 1016.9391,1649.3324 -3.1858,-3.1927 v -9.5782 l 3.1858,3.1927 z"
           id="path1489-4"
           inkscape:connector-curvature="0" /></g><g
         id="g184"
         inkscape:label="bench"
         style="display:inline;opacity:1;stroke-width:1.20555"><path
           inkscape:connector-curvature="0"
           style="fill:#99481f;fill-opacity:1;stroke:none;stroke-width:0.101683;stroke-linecap:round;stroke-linejoin:round;stroke-miterlimit:4;stroke-dasharray:none;stroke-dashoffset:0;stroke-opacity:1"
           d="m 1096.7383,1607.7676 v 3.2226 h 2.2454 v -3.2226 z"
           id="path1124" /><path
           id="path1126"
           d="m 1082.0383,1607.5374 v 3.2226 h 2.2455 v -3.2226 z"
           style="fill:#99481f;fill-opacity:1;stroke:none;stroke-width:0.101683;stroke-linecap:round;stroke-linejoin:round;stroke-miterlimit:4;stroke-dasharray:none;stroke-dashoffset:0;stroke-opacity:1"
           inkscape:connector-curvature="0" /><path
           style="fill:#803300;fill-opacity:1;stroke-width:0.051492;stroke-linecap:round;stroke-linejoin:round"
           d="m 1081.3236,1609.1487 h 18.3749 v -2.7622 h -18.3749 z"
           id="path1128"
           inkscape:connector-curvature="0" /><path
           style="fill:#af4600;fill-opacity:1;stroke-width:0.051492;stroke-linecap:round;stroke-linejoin:round"
           d="m 1081.3236,1605.9877 v -3.2842 h 18.3749 v 3.2842 z"
           id="path1130"
           inkscape:connector-curvature="0"
           sodipodi:nodetypes="ccccc" /></g><g
         id="g183"
         inkscape:label="trees"><path
           style="fill:url(#linearGradient2428);fill-opacity:1;stroke:none;stroke-width:0.361664;stroke-linecap:round;stroke-dashoffset:111.17"
           d="m 1111.2986,1584.1387 v 11.6151 c 0,0 1.9912,0.9956 3.6505,0.9956 1.6593,0 4.3142,-1.9912 4.3142,-1.9912 v -10.6195 z"
           id="path2422" /><path
           style="font-variation-settings:normal;opacity:1;vector-effect:none;fill:url(#radialGradient177);fill-opacity:1;stroke:none;stroke-width:0.10298;stroke-linecap:round;stroke-linejoin:miter;stroke-miterlimit:4;stroke-dasharray:none;stroke-dashoffset:111.17;stroke-opacity:1;-inkscape-stroke:none;filter:url(#filter543-1);stop-color:#000000;stop-opacity:1"
           d="m 29.671132,59.247769 c 0,0 -2.267857,-0.283483 -2.740329,-1.228423 -0.472469,-0.944939 -0.661457,-7.843005 0.566965,-9.260417 1.228424,-1.41741 2.55134,-3.02381 4.063244,-3.02381 1.511906,0 5.197173,4.063246 4.913691,6.236608 -0.283483,2.173364 -0.566963,5.953125 -1.511904,6.709077 -0.944941,0.755954 -2.55134,0.850448 -2.55134,0.850448 z"
           id="path2424"
           transform="matrix(3.51197,0,0,3.51197,1006.1,1376.39)" /><path
           style="fill:url(#linearGradient2438);fill-opacity:1;stroke:none;stroke-width:0.361664;stroke-linecap:round;stroke-dashoffset:111.17"
           d="m 977.51857,1627.8563 v 11.6151 c 0,0 1.99115,0.9956 3.65046,0.9956 1.6593,0 4.31417,-1.9912 4.31417,-1.9912 v -10.6195 z"
           id="path2432" /><path
           style="font-variation-settings:normal;display:inline;opacity:1;vector-effect:none;fill:url(#radialGradient178);fill-opacity:1;stroke:none;stroke-width:0.10298;stroke-linecap:round;stroke-linejoin:miter;stroke-miterlimit:4;stroke-dasharray:none;stroke-dashoffset:111.17;stroke-opacity:1;-inkscape-stroke:none;filter:url(#filter543-1);stop-color:#000000;stop-opacity:1"
           d="m 29.671132,59.247769 c 0,0 -2.267857,-0.283483 -2.740329,-1.228423 -0.472469,-0.944939 -0.661457,-7.843005 0.566965,-9.260417 1.228424,-1.41741 2.55134,-3.02381 4.063244,-3.02381 1.511906,0 5.197173,4.063246 4.913691,6.236608 -0.283483,2.173364 -0.566963,5.953125 -1.511904,6.709077 -0.944941,0.755954 -2.55134,0.850448 -2.55134,0.850448 z"
           id="path2434"
           transform="matrix(-3.51197,0,0,3.51197,1093.78,1420.11)" /><path
           style="fill:url(#linearGradient2448);fill-opacity:1;stroke:none;stroke-width:0.361664;stroke-linecap:round;stroke-dashoffset:111.17"
           d="m 1198.5923,1628.2549 v 11.6151 c 0,0 1.9912,0.9956 3.6505,0.9956 1.6593,0 4.3142,-1.9912 4.3142,-1.9912 v -10.6195 z"
           id="path2442" /><path
           style="font-variation-settings:normal;opacity:1;vector-effect:none;fill:url(#radialGradient179);fill-opacity:1;stroke:none;stroke-width:0.10298;stroke-linecap:round;stroke-linejoin:miter;stroke-miterlimit:4;stroke-dasharray:none;stroke-dashoffset:111.17;stroke-opacity:1;-inkscape-stroke:none;filter:url(#filter543-1);stop-color:#000000;stop-opacity:1"
           d="m 29.671132,59.247769 c 0,0 -2.267857,-0.283483 -2.740329,-1.228423 -0.472469,-0.944939 -0.661457,-7.843005 0.566965,-9.260417 1.228424,-1.41741 2.55134,-3.02381 4.063244,-3.02381 1.511906,0 5.197173,4.063246 4.913691,6.236608 -0.283483,2.173364 -0.566963,5.953125 -1.511904,6.709077 -0.944941,0.755954 -2.55134,0.850448 -2.55134,0.850448 z"
           id="path2444"
           transform="matrix(3.51197,0,0,3.51197,1093.39,1420.51)" /><path
           style="fill:url(#linearGradient2458);fill-opacity:1;stroke:none;stroke-width:0.361664;stroke-linecap:round;stroke-dashoffset:111.17"
           d="m 1112.2372,1690.2053 v 11.6151 c 0,0 1.9912,0.9956 3.6505,0.9956 1.6593,0 4.3142,-1.9912 4.3142,-1.9912 v -10.6195 z"
           id="path2452" /><path
           style="font-variation-settings:normal;opacity:1;vector-effect:none;fill:url(#radialGradient180);fill-opacity:1;stroke:none;stroke-width:0.10298;stroke-linecap:round;stroke-linejoin:miter;stroke-miterlimit:4;stroke-dasharray:none;stroke-dashoffset:111.17;stroke-opacity:1;-inkscape-stroke:none;filter:url(#filter543-1);stop-color:#000000;stop-opacity:1"
           d="m 29.671132,59.247769 c 0,0 -2.267857,-0.283483 -2.740329,-1.228423 -0.472469,-0.944939 -0.661457,-7.843005 0.566965,-9.260417 1.228424,-1.41741 2.55134,-3.02381 4.063244,-3.02381 1.511906,0 5.197173,4.063246 4.913691,6.236608 -0.283483,2.173364 -0.566963,5.953125 -1.511904,6.709077 -0.944941,0.755954 -2.55134,0.850448 -2.55134,0.850448 z"
           id="path2454"
           transform="matrix(3.51197,0,0,3.51197,1007.04,1482.46)" /><path
           id="path2462"
           d="m 1070.8883,1693.8995 -0.3708,11.538 c 0,0 1.5627,0.9885 2.8234,0.9775 1.2608,-0.011 3.0642,-2.0201 3.0642,-2.0201 l -0.2853,-10.5319 z"
           style="fill:url(#linearGradient2468);fill-opacity:1;stroke:none;stroke-width:0.361664;stroke-linecap:round;stroke-dashoffset:111.17"
           sodipodi:nodetypes="ccsccc" /><path
           id="path2464"
           d="m 29.671132,59.247769 c 0,0 -2.401492,-1.8871 -2.873964,-2.83204 -0.472469,-0.944939 -0.394187,-7.041197 0.834235,-8.458609 1.228424,-1.41741 2.417705,-2.222001 3.929609,-2.222001 1.511906,0 5.197173,4.063246 4.913691,6.236608 -0.283483,2.173364 -0.566963,4.416325 -1.511904,5.172277 -0.944941,0.755954 -2.55134,2.387248 -2.55134,2.387248 z"
           style="font-variation-settings:normal;opacity:1;vector-effect:none;fill:url(#radialGradient181);fill-opacity:1;stroke:none;stroke-width:0.10298;stroke-linecap:round;stroke-linejoin:miter;stroke-miterlimit:4;stroke-dasharray:none;stroke-dashoffset:111.17;stroke-opacity:1;-inkscape-stroke:none;filter:url(#filter543-1);stop-color:#000000;stop-opacity:1"
           sodipodi:nodetypes="cssssscc"
           transform="matrix(3.51197,0,0,3.51197,964.064,1485.96)" /><path
           id="path2472"
           d="m 1197.9908,1650.7577 -0.3709,11.538 c 0,0 1.5627,0.9885 2.8235,0.9775 1.2607,-0.011 3.0641,-2.0201 3.0641,-2.0201 l -0.2853,-10.5319 z"
           style="fill:url(#linearGradient2478);fill-opacity:1;stroke:none;stroke-width:0.361664;stroke-linecap:round;stroke-dashoffset:111.17"
           sodipodi:nodetypes="ccsccc" /><path
           id="path2474"
           d="m 29.671132,59.247769 c 0,0 -2.401492,-1.8871 -2.873964,-2.83204 -0.472469,-0.944939 -0.394187,-7.041197 0.834235,-8.458609 1.228424,-1.41741 2.417705,-2.222001 3.929609,-2.222001 1.511906,0 5.197173,4.063246 4.913691,6.236608 -0.283483,2.173364 -0.566963,4.416325 -1.511904,5.172277 -0.944941,0.755954 -2.55134,2.387248 -2.55134,2.387248 z"
           style="font-variation-settings:normal;opacity:1;vector-effect:none;fill:url(#radialGradient182);fill-opacity:1;stroke:none;stroke-width:0.10298;stroke-linecap:round;stroke-linejoin:miter;stroke-miterlimit:4;stroke-dasharray:none;stroke-dashoffset:111.17;stroke-opacity:1;-inkscape-stroke:none;filter:url(#filter543-1);stop-color:#000000;stop-opacity:1"
           sodipodi:nodetypes="cssssscc"
           transform="matrix(3.51197,0,0,3.51197,1091.17,1442.81)" /><path
           id="path2482"
           d="m 1068.8972,1585.3812 -0.3709,11.538 c 0,0 1.5627,0.9885 2.8235,0.9775 1.2607,-0.011 3.0641,-2.0201 3.0641,-2.0201 l -0.2853,-10.5319 z"
           style="fill:url(#linearGradient2488);fill-opacity:1;stroke:none;stroke-width:0.361664;stroke-linecap:round;stroke-dashoffset:111.17"
           sodipodi:nodetypes="ccsccc" /><path
           id="path2484"
           d="m 29.671132,59.247769 c 0,0 -2.401492,-1.8871 -2.873964,-2.83204 -0.472469,-0.944939 -0.394187,-7.041197 0.834235,-8.458609 1.228424,-1.41741 2.417705,-2.222001 3.929609,-2.222001 1.511906,0 5.197173,4.063246 4.913691,6.236608 -0.283483,2.173364 -0.566963,4.416325 -1.511904,5.172277 -0.944941,0.755954 -2.55134,2.387248 -2.55134,2.387248 z"
           style="font-variation-settings:normal;opacity:1;vector-effect:none;fill:url(#radialGradient183);fill-opacity:1;stroke:none;stroke-width:0.10298;stroke-linecap:round;stroke-linejoin:miter;stroke-miterlimit:4;stroke-dasharray:none;stroke-dashoffset:111.17;stroke-opacity:1;-inkscape-stroke:none;filter:url(#filter543-1);stop-color:#000000;stop-opacity:1"
           sodipodi:nodetypes="cssssscc"
           transform="matrix(3.51197,0,0,3.51197,962.073,1377.44)" /><path
           id="path2492"
           d="m 976.30826,1653.0807 -0.37085,11.538 c 0,0 1.56268,0.9885 2.82345,0.9775 1.26076,-0.011 3.06415,-2.0201 3.06415,-2.0201 l -0.28535,-10.5319 z"
           style="fill:url(#linearGradient2498);fill-opacity:1;stroke:none;stroke-width:0.361664;stroke-linecap:round;stroke-dashoffset:111.17"
           sodipodi:nodetypes="ccsccc" /><path
           id="path2494"
           d="m 29.671132,59.247769 c 0,0 -2.401492,-1.8871 -2.873964,-2.83204 -0.472469,-0.944939 -0.394187,-7.041197 0.834235,-8.458609 1.228424,-1.41741 2.417705,-2.222001 3.929609,-2.222001 1.511906,0 5.197173,4.063246 4.913691,6.236608 -0.283483,2.173364 -0.566963,4.416325 -1.511904,5.172277 -0.944941,0.755954 -2.55134,2.387248 -2.55134,2.387248 z"
           style="font-variation-settings:normal;display:inline;opacity:1;vector-effect:none;fill:url(#radialGradient2470-5);fill-opacity:1;stroke:none;stroke-width:0.10298;stroke-linecap:round;stroke-linejoin:miter;stroke-miterlimit:4;stroke-dasharray:none;stroke-dashoffset:111.17;stroke-opacity:1;-inkscape-stroke:none;filter:url(#filter543-1);stop-color:#000000;stop-opacity:1"
           sodipodi:nodetypes="cssssscc"
           transform="matrix(3.51197,0,0,3.51197,869.484,1445.14)" /></g><g
         id="g182"
         inkscape:label="bench"><path
           style="fill:#99481f;fill-opacity:1;stroke-width:0.361664;stroke-linecap:round;stroke-dashoffset:111.17"
           d="m 996.69612,1684.7164 -0.15112,2.5835 -1.86672,0.9126 0.16053,-2.667 z"
           id="path2528" /><path
           style="fill:#803300;fill-opacity:1;stroke-width:0.361664;stroke-linecap:round;stroke-dashoffset:111.17"
           d="m 999.76317,1683.2129 15.13563,7.9785 -6.5705,2.9333 -15.25296,-7.7438 z"
           id="path2522"
           sodipodi:nodetypes="ccccc" /><path
           style="fill:#c45d29;fill-opacity:1;stroke-width:0.361664;stroke-linecap:round;stroke-dashoffset:111.17"
           d="m 1008.3283,1694.1247 -2.3466,-4.5759 -15.25296,-8.2131 2.34661,5.0452 z"
           id="path2524"
           sodipodi:nodetypes="ccccc" /><path
           style="fill:#99481f;fill-opacity:1;stroke-width:0.361664;stroke-linecap:round;stroke-dashoffset:111.17"
           d="m 1011.4233,1692.7429 -0.1511,2.5835 -1.8667,0.9126 0.1605,-2.6669 z"
           id="path2526" /></g><circle
         cx="0"
         cy="0"
         r="4"
         id="[ISO ORIGIN][#6][Z=10.0000]"
         style="display:inline"
         transform="matrix(1.20063,0,0,1.21048,1100.06,1631.58)"
         inkscape:label="[ISO ORIGIN][#6][Z=0.0000]" /><g
         id="g275"
         inkscape:label="bench"><path
           style="opacity:1;fill:#803300;fill-opacity:1;stroke:none;stroke-width:1.17555;stroke-linecap:butt;stroke-dasharray:none;stroke-dashoffset:111.17;stroke-opacity:1"
           d="m 1011.6626,1611.617 12.0089,-6.0524 -3.6027,-1.8157 -12.0089,6.0524 z"
           id="path188" /><path
           style="opacity:1;fill:#af4600;fill-opacity:1;stroke:none;stroke-width:1.17555;stroke-linecap:butt;stroke-dasharray:none;stroke-dashoffset:111.17;stroke-opacity:1"
           d="m 1009.2608,1610.4065 v 2.421 l 1.2009,0.6052 v -2.4209 z"
           id="path189" /><path
           style="opacity:1;fill:#af4600;fill-opacity:1;stroke:none;stroke-width:1.17555;stroke-linecap:butt;stroke-dasharray:none;stroke-dashoffset:111.17;stroke-opacity:1"
           d="m 1022.4706,1606.1698 v 1.2105 l -1.2009,-0.6052 z"
           id="path190" /><path
           style="opacity:1;fill:#803300;fill-opacity:1;stroke:none;stroke-width:1.17555;stroke-linecap:butt;stroke-dasharray:none;stroke-dashoffset:111.17;stroke-opacity:1"
           d="m 1006.859,1609.196 -1.2009,-4.2366 12.0089,-6.0524 1.2009,4.2367 z"
           id="path191"
           sodipodi:nodetypes="ccccc" /></g></g></g></svg>
